<mxfile host="65bd71144e">
    <diagram id="HIP3nbAZw_EuaXWnEj3U" name="Page-1">
        <mxGraphModel dx="606" dy="478" grid="1" gridSize="10" guides="1" tooltips="1" connect="1" arrows="1" fold="1" page="1" pageScale="1" pageWidth="850" pageHeight="1100" math="0" shadow="0">
            <root>
                <mxCell id="0"/>
                <mxCell id="1" parent="0"/>
                <mxCell id="7" value="http://ics2o.mths.ca" style="swimlane;whiteSpace=wrap;html=1;" parent="1" vertex="1">
                    <mxGeometry x="30" y="40" width="760" height="480" as="geometry"/>
                </mxCell>
                <mxCell id="8" value="&lt;div style=&quot;color: rgb(230, 237, 243); background-color: rgb(13, 17, 23); font-family: Consolas, &amp;quot;Courier New&amp;quot;, monospace; font-size: 14px; line-height: 19px;&quot;&gt;&lt;span style=&quot;color: #a5d6ff;&quot;&gt;Convert Fahrenheit to Celsius&lt;/span&gt;&lt;/div&gt;" style="text;html=1;align=center;verticalAlign=middle;resizable=0;points=[];autosize=1;strokeColor=none;fillColor=none;" vertex="1" parent="7">
                    <mxGeometry x="20" y="70" width="260" height="30" as="geometry"/>
                </mxCell>
                <mxCell id="9" value="&lt;font style=&quot;font-size: 19px;&quot;&gt;Temperature&lt;/font&gt;" style="whiteSpace=wrap;html=1;" vertex="1" parent="7">
                    <mxGeometry x="50" y="120" width="320" height="70" as="geometry"/>
                </mxCell>
                <mxCell id="12" value="Fahrenheit" style="whiteSpace=wrap;html=1;fontSize=19;" vertex="1" parent="7">
                    <mxGeometry x="60" y="280" width="120" height="60" as="geometry"/>
                </mxCell>
                <mxCell id="10" value="32" style="whiteSpace=wrap;html=1;fontSize=19;" vertex="1" parent="7">
                    <mxGeometry x="60" y="220" width="120" height="60" as="geometry"/>
                </mxCell>
                <mxCell id="13" value="&lt;font style=&quot;font-size: 29px;&quot;&gt;=&lt;/font&gt;" style="text;html=1;align=center;verticalAlign=middle;resizable=0;points=[];autosize=1;strokeColor=none;fillColor=none;fontSize=19;" vertex="1" parent="7">
                    <mxGeometry x="210" y="250" width="40" height="50" as="geometry"/>
                </mxCell>
                <mxCell id="15" value="0" style="whiteSpace=wrap;html=1;fontSize=29;" vertex="1" parent="7">
                    <mxGeometry x="280" y="220" width="120" height="60" as="geometry"/>
                </mxCell>
                <mxCell id="16" value="&lt;font style=&quot;font-size: 19px;&quot;&gt;Celsius&lt;/font&gt;" style="whiteSpace=wrap;html=1;fontSize=29;" vertex="1" parent="7">
                    <mxGeometry x="280" y="280" width="120" height="60" as="geometry"/>
                </mxCell>
                <mxCell id="17" value="&lt;font style=&quot;font-size: 20px;&quot;&gt;Formula&amp;nbsp; (&lt;span style=&quot;color: rgb(230, 237, 243); font-family: Consolas, &amp;quot;Courier New&amp;quot;, monospace;&quot;&gt;°F-32)* 5/9 = 0&lt;/span&gt;&lt;span style=&quot;color: rgb(230, 237, 243); font-family: Consolas, &amp;quot;Courier New&amp;quot;, monospace;&quot;&gt;°C&lt;/span&gt;&lt;/font&gt;" style="text;html=1;align=center;verticalAlign=middle;resizable=0;points=[];autosize=1;strokeColor=none;fillColor=none;fontSize=19;" vertex="1" parent="7">
                    <mxGeometry x="45" y="380" width="320" height="40" as="geometry"/>
                </mxCell>
            </root>
        </mxGraphModel>
    </diagram>
</mxfile>